<svg width="24" height="24" fill="none" xmlns="http://www.w3.org/2000/svg"><path d="M12.594 12.476a.938.938 0 00-.25-1.858A2.534 2.534 0 019.468 8.11 2.534 2.534 0 0112 5.577a2.534 2.534 0 012.498 2.943.938.938 0 001.85.302A4.411 4.411 0 0012 3.703 4.411 4.411 0 007.595 8.11a4.411 4.411 0 005 4.367zm7.973 6.115c-.721-.378-1.711-.697-2.943-.947a.938.938 0 00-.373 1.837c1.9.386 2.678.85 2.903 1.074-.165.166-.719.582-2.345.974-1.597.384-3.66.596-5.809.596-2.15 0-4.212-.212-5.81-.596-1.625-.392-2.179-.808-2.344-.974.225-.224 1.003-.688 2.903-1.074a.938.938 0 00-.373-1.837c-1.232.25-2.222.569-2.943.947-1.003.526-1.511 1.187-1.511 1.966 0 1.163 1.133 2.063 3.367 2.676C7.094 23.727 9.477 24 12 24c2.523 0 4.906-.273 6.711-.767 2.234-.613 3.367-1.513 3.367-2.676 0-.779-.508-1.44-1.51-1.966z" fill="#3C71FF"/><path d="M11.207 19.813a.94.94 0 001.585 0c.86-1.36 1.979-2.552 3.06-3.706 2.115-2.254 4.3-4.584 4.304-8.046a7.973 7.973 0 00-2.4-5.72A8.159 8.159 0 0012 0C9.826 0 7.79.833 6.265 2.344a8.005 8.005 0 00-2.374 5.72c.003 3.464 2.178 5.8 4.282 8.057 1.071 1.15 2.178 2.338 3.034 3.692zM12 1.875c3.46 0 6.277 2.776 6.281 6.187-.002 2.718-1.76 4.592-3.796 6.763-.842.898-1.706 1.819-2.484 2.846-.771-1.02-1.624-1.935-2.456-2.828-2.027-2.175-3.777-4.053-3.78-6.78C5.77 4.594 8.509 1.876 12 1.876z" fill="#3C71FF"/></svg>