<svg width="24" height="24" fill="none" xmlns="http://www.w3.org/2000/svg"><g clip-path="url(#prefix__clip0_703_219)" fill="#3C71FF"><path d="M23.667 8.75L12.504.178a.86.86 0 00-1.048 0L.293 8.75a.857.857 0 001.048 1.354l1.193-.917v1.098a.857.857 0 00.859.857.86.86 0 00.859-.857V7.866l7.728-5.932 7.729 5.932v2.417a.857.857 0 00.858.858.86.86 0 00.86-.857V9.186l1.193.918a.86.86 0 00.902.091.859.859 0 00.471-.878.857.857 0 00-.326-.568zM8.545 17.142H6.828a.86.86 0 00-.859.858.856.856 0 00.859.857h1.717A.86.86 0 009.404 18a.857.857 0 00-.859-.858zm8.588 0h-1.718a.86.86 0 00-.859.858.856.856 0 00.86.857h1.716a.86.86 0 00.86-.857.856.856 0 00-.86-.858z"/><path d="M19.451 14.4l-1.142-3.961a2.572 2.572 0 00-2.473-1.869H8.107a2.58 2.58 0 00-2.473 1.86L4.51 14.4A4.289 4.289 0 002.534 18v1.714a2.569 2.569 0 001.718 2.426v.146A1.713 1.713 0 005.969 24h2.576a1.719 1.719 0 001.718-1.714h3.435A1.713 1.713 0 0015.415 24h2.576a1.72 1.72 0 001.718-1.714v-.146a2.576 2.576 0 001.717-2.426V18a4.28 4.28 0 00-1.975-3.6zm-12.15-3.498a.857.857 0 01.858-.617h7.728a.86.86 0 01.86.625l.729 2.803H6.484l.816-2.811zm12.408 8.812a.857.857 0 01-.859.857.86.86 0 00-.859.857v.858h-2.576v-.858a.857.857 0 00-.859-.857H9.404a.86.86 0 00-.859.857v.858H5.97v-.858a.857.857 0 00-.859-.857.86.86 0 01-.858-.857V18c0-.683.271-1.337.754-1.819a2.578 2.578 0 011.822-.753h10.304A2.578 2.578 0 0119.71 18v1.714z"/></g><defs><clipPath id="prefix__clip0_703_219"><path fill="#fff" d="M0 0h24v24H0z"/></clipPath></defs></svg>