<svg width="24" height="24" fill="none" xmlns="http://www.w3.org/2000/svg"><path d="M8 7a1 1 0 11-2 0 1 1 0 012 0zm-1 6a1 1 0 100-2 1 1 0 000 2zm1 4a1 1 0 11-2 0 1 1 0 012 0zm3-11a1 1 0 100 2h6a1 1 0 100-2h-6zm-1 6a1 1 0 011-1h6a1 1 0 010 2h-6a1 1 0 01-1-1zm1 4a1 1 0 000 2h6a1 1 0 000-2h-6z" fill="#3C71FF"/><path fill-rule="evenodd" clip-rule="evenodd" d="M22 5a3 3 0 00-3-3H5a3 3 0 00-3 3v14a3 3 0 003 3h14a3 3 0 003-3V5zm-2 0a1 1 0 00-1-1H5a1 1 0 00-1 1v14a1 1 0 001 1h14a1 1 0 001-1V5z" fill="#3C71FF"/></svg>