<svg width="80" height="80" viewBox="0 0 80 80" fill="none" xmlns="http://www.w3.org/2000/svg">
<path d="M35.6699 61.0938L31.059 59.8562L29.9074 59.5516C29.3808 59.4109 29.0683 58.8672 29.2105 58.3391L30.8012 52.4C31.0355 51.525 30.9137 50.6094 30.4605 49.8234C30.0058 49.0359 29.2746 48.4734 28.398 48.2391C27.523 48.0047 26.6074 48.1266 25.8215 48.5797C25.034 49.0344 24.4715 49.7656 24.2387 50.6406L23.1246 54.7797C22.6387 56.5984 21.0465 57.8297 19.1637 57.8438L16.8387 57.8578L16.9121 57.5844C17.1027 56.8844 17.0074 56.15 16.6418 55.5188C16.464 55.2094 16.2269 54.9381 15.944 54.7207C15.6611 54.5032 15.338 54.3438 14.9933 54.2516L9.11991 52.6797H9.11835C7.67147 52.2922 6.17772 53.1547 5.79178 54.6L1.45272 70.8047C1.26522 71.5031 1.36209 72.2344 1.72616 72.8625C2.08866 73.4906 2.6746 73.9406 3.37303 74.1266L9.2496 75.7047C9.48241 75.7672 9.71678 75.7953 9.94647 75.7953C11.148 75.7953 12.2512 74.9922 12.5746 73.7797L12.609 73.6484L14.598 75.0766C15.7574 75.9094 16.8918 76.4469 18.2762 76.8188L29.7121 79.8844C30.0043 79.9625 30.2996 80 30.5887 80C32.0887 80 33.4652 78.9969 33.873 77.4813C34.0402 76.8563 34.0262 76.2109 33.8387 75.6047C33.8793 75.5828 33.9183 75.5609 33.959 75.5391C34.7465 75.0844 35.309 74.3531 35.5433 73.4766C35.6855 72.9422 35.6933 72.4031 35.5855 71.8953C36.5746 71.5219 37.3762 70.6938 37.6699 69.5969C37.9043 68.7219 37.7824 67.8062 37.3293 67.0203C37.284 66.9406 37.234 66.8641 37.1824 66.7891C37.5965 66.3797 37.9121 65.8594 38.073 65.2563C38.3074 64.3813 38.1855 63.4656 37.7324 62.6781C37.2777 61.8906 36.5449 61.3266 35.6699 61.0938ZM9.89335 73.2906L4.01834 71.7141C3.94803 71.6953 3.90897 71.6484 3.88866 71.6141C3.86834 71.5781 3.84647 71.5203 3.86522 71.45L8.20585 55.2422C8.23085 55.1484 8.3246 55.0828 8.42147 55.0828C8.43866 55.0828 8.45741 55.0844 8.4746 55.0891L14.3418 56.6594C14.4199 56.6812 14.4621 56.7359 14.4793 56.7656C14.4996 56.8 14.5199 56.8562 14.4996 56.9281L10.159 73.1313C10.1293 73.25 10.0074 73.3203 9.89335 73.2906ZM35.659 64.6109C35.5324 65.0813 35.0293 65.3719 34.559 65.2484L29.9527 64.0125C29.2871 63.8344 28.6012 64.2297 28.423 64.8953C28.2449 65.5609 28.6402 66.2469 29.3058 66.425L33.9121 67.6609L34.6215 67.8516C34.8512 67.9125 35.0449 68.0625 35.1652 68.2703C35.2855 68.4797 35.3183 68.7219 35.2574 68.9531C35.1293 69.4312 34.6371 69.7156 34.1558 69.5891L28.8371 68.1625C28.1699 67.9844 27.4855 68.3797 27.3074 69.0453C27.1293 69.7109 27.5246 70.3969 28.1902 70.575L32.4652 71.7219C32.4762 71.725 32.4855 71.7297 32.4965 71.7312H32.4996C32.9762 71.8609 33.2605 72.3531 33.1324 72.8328C33.102 72.9466 33.0493 73.0533 32.9774 73.1466C32.9056 73.2399 32.8159 73.3181 32.7137 73.3766C32.612 73.4358 32.4996 73.4745 32.383 73.4903C32.2664 73.5061 32.1478 73.4988 32.034 73.4688L31.4887 73.3219C31.484 73.3203 31.4793 73.3188 31.473 73.3172L31.4496 73.3125L27.7262 72.3156C27.059 72.1375 26.3746 72.5328 26.1965 73.2C26.0183 73.8672 26.4137 74.5516 27.0808 74.7297L30.8433 75.7359C31.0669 75.8002 31.2565 75.9494 31.3715 76.1516C31.4933 76.3625 31.5262 76.6062 31.4637 76.8359C31.3371 77.3062 30.8308 77.5984 30.3621 77.4734L18.9262 74.4094C17.8324 74.1156 16.9746 73.7094 16.0574 73.0516L13.3012 71.0719L16.1699 60.3609L19.1808 60.3438C22.2043 60.3219 24.7605 58.3453 25.5387 55.4281L26.6512 51.2906C26.6816 51.1768 26.7343 51.0702 26.8061 50.9768C26.878 50.8835 26.9677 50.8054 27.0699 50.7469C27.2793 50.6266 27.5215 50.5938 27.7527 50.6547C27.9824 50.7156 28.1762 50.8656 28.2965 51.0734C28.4168 51.2828 28.4496 51.525 28.3887 51.7562L26.798 57.6953C26.3012 59.5531 27.4058 61.4687 29.2668 61.9672L35.0262 63.5078C35.2558 63.5688 35.448 63.7188 35.5699 63.9281C35.6887 64.1375 35.7215 64.3813 35.659 64.6109ZM11.9512 58.6969L11.9027 58.8734C11.7512 59.4281 11.248 59.7922 10.6996 59.7922C10.5902 59.7922 10.4793 59.7781 10.3683 59.7469C10.2101 59.7034 10.062 59.6292 9.93247 59.5285C9.80294 59.4278 9.69451 59.3025 9.6134 59.1599C9.53229 59.0172 9.48008 58.86 9.45974 58.6972C9.43941 58.5344 9.45136 58.3691 9.49491 58.2109L9.54335 58.0344C9.72616 57.3688 10.4137 56.9781 11.0793 57.1609C11.7449 57.3437 12.134 58.0328 11.9512 58.6969ZM78.5465 70.8047L74.2058 54.6C73.8199 53.1547 72.3262 52.2922 70.8793 52.6797H70.8777L64.9996 54.2516C63.5512 54.6469 62.6933 56.1406 63.0855 57.5781L63.1605 57.8578L60.8371 57.8438C58.9527 57.8297 57.3605 56.5984 56.8746 54.7781L55.7637 50.6422C55.5293 49.7672 54.9668 49.0344 54.1793 48.5797C53.3933 48.125 52.4777 48.0047 51.6027 48.2391C50.7277 48.4734 49.9949 49.0359 49.5402 49.8234C49.3158 50.209 49.1701 50.6353 49.1116 51.0776C49.0531 51.5199 49.083 51.9694 49.1996 52.4L50.7902 58.3391C50.9308 58.8672 50.6183 59.4109 50.0965 59.55L44.3308 61.0922C42.5215 61.5766 41.4433 63.4453 41.9277 65.2578C42.0887 65.8594 42.4027 66.3797 42.8183 66.7891C42.7668 66.8641 42.7183 66.9406 42.673 67.0203C42.4486 67.4059 42.3029 67.8322 42.2444 68.2744C42.186 68.7167 42.2159 69.1662 42.3324 69.5969C42.6262 70.6938 43.4277 71.5219 44.4168 71.8969C44.309 72.4047 44.3152 72.9422 44.459 73.4766C44.6933 74.3516 45.2558 75.0844 46.0433 75.5391C46.0824 75.5625 46.123 75.5844 46.1637 75.6047C45.9762 76.2094 45.9621 76.8563 46.1293 77.4813C46.5355 78.9969 47.9121 79.9984 49.4121 79.9984C49.7012 79.9984 49.9965 79.9609 50.2902 79.8828L61.7262 76.8172C63.1058 76.4469 64.2418 75.9094 65.409 75.075L67.3933 73.6484L67.4277 73.7766C67.7527 74.9906 68.8527 75.7937 70.0543 75.7937C70.2855 75.7937 70.5215 75.7641 70.7558 75.7016L76.6277 74.125C78.0699 73.7422 78.9324 72.2516 78.5465 70.8047ZM63.9496 73.0469C63.0277 73.7062 62.1668 74.1125 61.0746 74.4063L49.6387 77.4719C49.1683 77.5984 48.6637 77.3062 48.5371 76.8359C48.4746 76.6047 48.5074 76.3609 48.6293 76.15C48.745 75.9478 48.935 75.7987 49.159 75.7344L52.9199 74.7281C53.2399 74.6424 53.5129 74.4331 53.6787 74.1463C53.8445 73.8595 53.8897 73.5186 53.8043 73.1984C53.6262 72.5328 52.9402 72.1359 52.2746 72.3141L48.5496 73.3109L48.5277 73.3156L48.5137 73.3187L47.9699 73.4656C47.7387 73.5281 47.4965 73.4953 47.2871 73.3734C47.1847 73.3152 47.0948 73.2371 47.0229 73.1437C46.951 73.0504 46.8985 72.9436 46.8683 72.8297C46.8071 72.5997 46.8392 72.3549 46.9578 72.1485C47.0763 71.9422 47.2716 71.791 47.5012 71.7281H47.5043L47.5355 71.7188L51.8105 70.5719C52.4762 70.3938 52.8715 69.7078 52.6933 69.0422C52.5152 68.3766 51.8293 67.9813 51.1637 68.1594L45.8449 69.5859C45.3652 69.7141 44.8715 69.4281 44.7449 68.95C44.6824 68.7187 44.7152 68.4766 44.8371 68.2672C44.8956 68.1645 44.974 68.0745 45.0676 68.0024C45.1612 67.9302 45.2682 67.8774 45.3824 67.8469L46.0902 67.6562L50.6965 66.4203C51.3621 66.2422 51.7574 65.5562 51.5793 64.8906C51.4012 64.225 50.7152 63.8297 50.0496 64.0078L45.4433 65.2437C44.973 65.3687 44.4683 65.0781 44.3433 64.6078C44.2168 64.1344 44.5074 63.6281 44.9793 63.5016L49.5808 62.2672L50.7402 61.9609C52.5965 61.4641 53.7027 59.5484 53.2043 57.6891L51.6137 51.75C51.5512 51.5188 51.584 51.2766 51.7058 51.0672C51.7641 50.9647 51.8422 50.8749 51.9355 50.803C52.0289 50.7311 52.1357 50.6786 52.2496 50.6484C52.4808 50.5875 52.723 50.6187 52.9324 50.7406C53.1418 50.8609 53.2902 51.0547 53.3527 51.2859L54.4637 55.4203C55.2433 58.3406 57.798 60.3156 60.823 60.3375L63.8324 60.3547L66.7027 71.0656L63.9496 73.0469ZM75.9793 71.7141L70.1074 73.2906C69.9949 73.3219 69.8683 73.2469 69.8387 73.1328L65.4965 56.925C65.4668 56.8141 65.5387 56.6922 65.6512 56.6625L71.523 55.0906C71.5949 55.0719 71.6543 55.0922 71.6918 55.1141C71.7277 55.1344 71.7746 55.1734 71.7933 55.2437L76.134 71.4484C76.1637 71.5625 76.0933 71.6844 75.9793 71.7141ZM70.5043 58.2125C70.5478 58.3707 70.5598 58.5359 70.5394 58.6988C70.5191 58.8616 70.4669 59.0188 70.3858 59.1614C70.3047 59.3041 70.1963 59.4293 70.0667 59.53C69.9372 59.6308 69.7891 59.705 69.6308 59.7484C69.5229 59.7779 69.4115 59.7932 69.2996 59.7937C68.7512 59.7937 68.248 59.4297 68.0965 58.875L68.048 58.6984C67.8652 58.0328 68.2558 57.3453 68.9215 57.1625C69.5871 56.9797 70.2746 57.3703 70.4574 58.0359L70.5043 58.2125ZM55.1808 34.6266C55.1808 26.2578 48.3699 19.4484 39.998 19.4484C31.6293 19.4484 24.8199 26.2578 24.8199 34.6266C24.8199 42.9953 31.6293 49.8047 39.998 49.8047C48.3699 49.8047 55.1808 42.9953 55.1808 34.6266ZM27.3168 34.6266C27.3168 27.6344 33.0058 21.9453 39.998 21.9453C46.9933 21.9453 52.6824 27.6344 52.6824 34.6266C52.6824 38.0594 51.309 41.1766 49.084 43.4609C47.9121 40.5219 45.773 38.2906 43.2105 37.2609C44.5746 36.2672 45.4621 34.6594 45.4621 32.8453C45.4621 29.8313 43.0121 27.3797 40.0012 27.3797C36.9871 27.3797 34.5355 29.8313 34.5355 32.8453C34.5355 34.6578 35.4246 36.2672 36.7902 37.2609C34.2262 38.2906 32.0871 40.5219 30.9137 43.4625C28.6902 41.1766 27.3168 38.0594 27.3168 34.6266ZM40.0012 35.8094C38.3652 35.8094 37.034 34.4797 37.034 32.8469C37.034 31.2109 38.3652 29.8797 40.0012 29.8797C41.6355 29.8797 42.9637 31.2109 42.9637 32.8469C42.9652 34.4797 41.6355 35.8094 40.0012 35.8094ZM32.9574 45.1672C34.0746 41.575 36.8793 39.1297 40.0012 39.1297C43.1199 39.1297 45.923 41.5734 47.0402 45.1656C44.9576 46.5641 42.5051 47.3094 39.9965 47.3063C37.3949 47.3078 34.973 46.5188 32.9574 45.1672ZM31.7668 7.32344L35.3433 9.9125L33.9699 14.1141C33.8012 14.6297 33.984 15.1937 34.423 15.5125C34.8621 15.8312 35.4558 15.8312 35.8933 15.5109L39.4621 12.9078L43.0308 15.5109C43.2496 15.6703 43.509 15.7516 43.7668 15.7516C44.0246 15.7516 44.2824 15.6719 44.5012 15.5125C44.7151 15.3574 44.8742 15.1385 44.9556 14.8871C45.0371 14.6358 45.0366 14.3651 44.9543 14.1141L43.5808 9.91406L47.1605 7.325C47.5996 7.00781 47.784 6.44219 47.6168 5.92656C47.4496 5.41094 46.9699 5.0625 46.4293 5.0625H46.4277L42.0105 5.07031L40.6512 0.865625C40.5699 0.614177 40.411 0.39495 40.1974 0.239425C39.9838 0.0838994 39.7263 7.87719e-05 39.4621 0C38.9199 0 38.4402 0.35 38.273 0.865625L36.9183 5.07031L32.5012 5.0625H32.4996C31.959 5.0625 31.4793 5.41094 31.3121 5.925C31.1433 6.44062 31.3277 7.00469 31.7668 7.32344ZM37.8246 7.56875H37.8262C38.3683 7.56875 38.848 7.21875 39.0152 6.70313L39.4621 5.31563L39.9105 6.70469C39.9919 6.9561 40.1507 7.17528 40.3643 7.3308C40.578 7.48631 40.8354 7.57016 41.0996 7.57031H41.1012L42.559 7.56719L41.3762 8.42188C41.1617 8.5769 41.0022 8.79606 40.9204 9.0477C40.8387 9.29934 40.8391 9.57045 40.9215 9.82188L41.3762 11.2125L40.1965 10.3516C39.9777 10.1922 39.7183 10.1109 39.4605 10.1109C39.2027 10.1109 38.9433 10.1906 38.7246 10.3516L37.5449 11.2125L37.9996 9.82188C38.1683 9.30625 37.984 8.74063 37.5449 8.42188L36.3637 7.56719L37.8246 7.56875ZM12.8637 22.5187L10.6449 26.3406C10.373 26.8094 10.434 27.4 10.7965 27.8031C11.159 28.2063 11.7402 28.3297 12.2355 28.1078L16.2668 26.3016L19.2199 29.5922C19.3961 29.789 19.6302 29.9248 19.8885 29.9801C20.1469 30.0355 20.4161 30.0074 20.6574 29.9C20.8988 29.7928 21.1 29.6117 21.232 29.3829C21.364 29.154 21.4199 28.8892 21.3918 28.6266L20.9215 24.2313L24.9605 22.4437C25.2022 22.3371 25.4037 22.1565 25.536 21.9279C25.6682 21.6992 25.7244 21.4345 25.6965 21.1719C25.6688 20.9092 25.5586 20.662 25.3818 20.4658C25.205 20.2696 24.9705 20.1344 24.7121 20.0797L20.3871 19.1688L19.9355 14.7734C19.9085 14.5106 19.7988 14.2632 19.6222 14.0666C19.4457 13.8701 19.2113 13.7347 18.9529 13.6798C18.6944 13.6249 18.4252 13.6534 18.184 13.7612C17.9428 13.869 17.742 14.0505 17.6105 14.2797L15.4074 18.1141L11.0902 17.1859C10.5605 17.0719 10.0168 17.3125 9.74647 17.7828C9.4746 18.2516 9.53866 18.8422 9.90116 19.2453L12.8637 22.5187ZM15.773 20.7437C16.3027 20.8578 16.848 20.6156 17.1183 20.1453L17.8465 18.8781L17.9949 20.3281C18.022 20.5916 18.1321 20.8397 18.3093 21.0365C18.4865 21.2334 18.7217 21.3689 18.9808 21.4234L20.4105 21.725L19.0777 22.3156C18.8357 22.4227 18.634 22.6039 18.5017 22.8331C18.3694 23.0622 18.3134 23.3275 18.3418 23.5906L18.498 25.0469L17.5199 23.9563C17.3433 23.759 17.1085 23.6231 16.8496 23.568C16.5906 23.513 16.3209 23.5417 16.0793 23.65L14.7512 24.2453L15.4824 22.9859C15.6152 22.7571 15.6719 22.4921 15.6444 22.229C15.6168 21.9659 15.5065 21.7183 15.3293 21.5219L14.3512 20.4391L15.773 20.7437ZM54.5012 21.5109L58.5402 23.3031L58.0699 27.6953C58.0418 27.958 58.0977 28.2228 58.2297 28.4516C58.3617 28.6805 58.5628 28.8615 58.8043 28.9687C59.0456 29.0761 59.3148 29.1042 59.5731 29.0489C59.8315 28.9936 60.0656 28.8577 60.2418 28.6609L63.1949 25.3703L67.2262 27.1766C67.7215 27.3984 68.3027 27.275 68.6652 26.8719C69.0277 26.4687 69.0902 25.8781 68.8168 25.4094L66.5996 21.5875L69.5621 18.3078C69.7396 18.1119 69.8502 17.8647 69.878 17.6018C69.9058 17.3389 69.8493 17.074 69.7168 16.8453C69.4449 16.3766 68.9027 16.1359 68.373 16.2484L64.0558 17.1781L61.8527 13.3484C61.7213 13.1193 61.5205 12.9378 61.2793 12.8302C61.038 12.7227 60.7688 12.6946 60.5105 12.75C60.2522 12.8051 60.0179 12.9407 59.8414 13.1371C59.6648 13.3336 59.555 13.581 59.5277 13.8437L59.0762 18.2344L54.7512 19.1453C54.4928 19.1997 54.2584 19.3345 54.0816 19.5305C53.9047 19.7265 53.7945 19.9734 53.7668 20.2359C53.7385 20.4988 53.7943 20.7639 53.9263 20.9931C54.0582 21.2222 54.2595 21.4035 54.5012 21.5109ZM60.4824 20.4922C61.0137 20.3797 61.4121 19.9375 61.4683 19.3984L61.6168 17.95L62.3449 19.2156C62.4769 19.445 62.6782 19.6266 62.92 19.7341C63.1618 19.8417 63.4315 19.8697 63.6902 19.8141L65.1137 19.5078L64.1355 20.5906C63.958 20.7869 63.8475 21.0345 63.8199 21.2977C63.7924 21.5608 63.8493 21.826 63.9824 22.0547L64.7137 23.3141L63.3855 22.7187C63.1439 22.6106 62.8742 22.5819 62.6153 22.637C62.3563 22.692 62.1216 22.8279 61.9449 23.025L60.9668 24.1156L61.1215 22.6641C61.1496 22.401 61.0935 22.1358 60.9613 21.9066C60.829 21.6775 60.6274 21.4963 60.3855 21.3891L59.0465 20.7953L60.4824 20.4922Z" fill="#3C71FF"/>
</svg>
