<svg width="24" height="24" fill="none" xmlns="http://www.w3.org/2000/svg"><path fill-rule="evenodd" clip-rule="evenodd" d="M5.778 5A.778.778 0 005 5.778v12.444c0 .309.18.575.44.701l9.408-9.408a1 1 0 011.415 0L19 12.252V5.778A.778.778 0 0018.222 5H5.778zM21 14.666V5.778A2.778 2.778 0 0018.222 3H5.778A2.778 2.778 0 003 5.778v12.444A2.778 2.778 0 005.778 21h12.444A2.778 2.778 0 0021 18.222v-3.554-.002zm-2 .415l-3.444-3.445L8.192 19h10.03c.43 0 .778-.348.778-.778v-3.141zM8.889 8.556a.333.333 0 100 .666.333.333 0 000-.666zm-2.333.333a2.333 2.333 0 114.666 0 2.333 2.333 0 01-4.666 0z" fill="#3C71FF"/></svg>