<svg width="21" height="20" viewBox="0 0 21 20" fill="none" xmlns="http://www.w3.org/2000/svg">
<path d="M17.7 9.59998C17.7 13.8 14.3001 17.2 10.1 17.2C5.90001 17.2 2.5 13.8 2.5 9.59998C2.5 5.4 5.90001 2 10.1 2" stroke="white" stroke-width="1.5" stroke-linecap="round" stroke-linejoin="round"/>
<path d="M18.4999 18L16.8999 16.4001" stroke="white" stroke-width="1.5" stroke-linecap="round" stroke-linejoin="round"/>
<path d="M12.4997 5.30403C12.2196 4.42402 12.5477 3.32803 13.4756 3.03202C13.9637 2.87203 14.5637 3.00802 14.9076 3.48002C15.2276 2.99203 15.8516 2.88002 16.3316 3.03202C17.2596 3.32803 17.5877 4.42402 17.3076 5.30403C16.8677 6.70402 15.3317 7.43203 14.9076 7.43203C14.4756 7.43203 12.9557 6.72003 12.4997 5.30403Z" stroke="white" stroke-width="1.5" stroke-linecap="round" stroke-linejoin="round"/>
</svg>
