<svg width="24" height="24" fill="none" xmlns="http://www.w3.org/2000/svg"><g opacity=".2" clip-path="url(#prefix__clip0_322_215)">
    <path d="M16.927 3.087l.61-.797a.937.937 0 111.49 1.139l-.61.797a.936.936 0 01-1.314.175.938.938 0 01-.176-1.314zm5.461 11.731l-.937-.328a.938.938 0 00-.62 1.77l.938.328a.938.938 0 10.62-1.77zM4.74 4.226a.936.936 0 001.314.175.937.937 0 00.175-1.314l-.61-.797A.938.938 0 004.13 3.429l.61.797zm-3.128 10.03l-.937.328a.938.938 0 00.62 1.77l.937-.329a.938.938 0 00-.62-1.77zm9.92 6.885a.938.938 0 00-.938.937v.985a.938.938 0 001.875 0v-.985a.937.937 0 00-.938-.937zm7.882-2.355l-.994-2.96a.938.938 0 00-1.777.597l.991 2.954a.614.614 0 01-.231.706.597.597 0 01-.734-.003l-3.681-2.667a2.491 2.491 0 00-2.946.002l-3.68 2.708a.595.595 0 01-.732.001.616.616 0 01-.23-.71l1.407-4.369a2.503 2.503 0 00-.906-2.8L2.231 9.56a.594.594 0 01-.229-.694.596.596 0 01.596-.428h4.538c1.083 0 2.039-.704 2.38-1.755l1.406-4.372a.599.599 0 01.595-.435c.136 0 .468.042.594.434l1.408 4.374a2.506 2.506 0 002.379 1.755h4.567c.412 0 .554.299.596.427a.595.595 0 01-.23.695l-2.494 1.824a.938.938 0 001.107 1.513l2.492-1.822a2.46 2.46 0 00.908-2.79 2.462 2.462 0 00-2.38-1.723h-4.566a.644.644 0 01-.595-.455l-1.407-4.374A2.464 2.464 0 0011.516 0C10.413 0 9.48.68 9.138 1.735l-1.406 4.37a.645.645 0 01-.595.457H2.598A2.463 2.463 0 00.22 8.284a2.46 2.46 0 00.906 2.79l3.67 2.686a.633.633 0 01.228.71l-1.407 4.368a2.472 2.472 0 00.914 2.805c.445.322.955.483 1.465.483.513 0 1.027-.163 1.475-.49l3.68-2.708c.22-.16.514-.16.736.001l3.68 2.668a2.46 2.46 0 002.937.004 2.472 2.472 0 00.91-2.815z" fill="#1A2339"/></g></svg>