<svg width="21" height="20" fill="none" xmlns="http://www.w3.org/2000/svg"><path d="M17.7 9.6c0 4.2-3.4 7.6-7.6 7.6-4.2 0-7.6-3.4-7.6-7.6C2.5 5.4 5.9 2 10.1 2M18.5 18l-1.6-1.6" stroke="#fff" stroke-width="1.5" stroke-linecap="round" stroke-linejoin="round"/><path d="M12.5 5.304c-.28-.88.048-1.976.976-2.272.488-.16 1.088-.024 1.432.448.32-.488.944-.6 1.424-.448.928.296 1.256 1.392.976 2.272-.44 1.4-1.976 2.128-2.4 2.128-.432 0-1.952-.712-2.408-2.128z" stroke="#fff" stroke-width="1.5" stroke-linecap="round" stroke-linejoin="round"/></svg>