<svg width="24" height="24" viewBox="0 0 24 24" fill="none" xmlns="http://www.w3.org/2000/svg">
<g opacity="0.2">
<path d="M21.9995 12V16.9999C21.9995 19.9999 19.9995 22 16.9995 22H6.99951C3.99951 22 1.99951 19.9999 1.99951 16.9999V12C1.99951 9.27997 3.63951 7.37997 6.18951 7.05996C6.4495 7.01997 6.7195 6.99997 6.99951 6.99997H16.9995C17.2595 6.99997 17.5095 7.00995 17.7495 7.04996C20.3295 7.34996 21.9995 9.25996 21.9995 12Z" stroke="#1A2339" stroke-width="1.5" stroke-linecap="round" stroke-linejoin="round"/>
<path d="M17.7514 7.05C17.5114 7.00999 17.2614 7.00001 17.0014 7.00001H7.00141C6.7214 7.00001 6.4514 7.02001 6.19141 7.06001C6.3314 6.78001 6.53141 6.52001 6.77141 6.28001L10.0214 3.01999C11.3914 1.66 13.6114 1.66 14.9814 3.01999L16.7314 4.79002C17.3714 5.42002 17.7114 6.22 17.7514 7.05Z" stroke="#1A2339" stroke-width="1.5" stroke-linecap="round" stroke-linejoin="round"/>
<path d="M21.9995 12.4999H18.9995C17.8995 12.4999 16.9995 13.3999 16.9995 14.5C16.9995 15.6 17.8995 16.5 18.9995 16.5H21.9995" stroke="#1A2339" stroke-width="1.5" stroke-linecap="round" stroke-linejoin="round"/>
</g>
</svg>
