<svg width="24" height="24" viewBox="0 0 24 24" fill="none" xmlns="http://www.w3.org/2000/svg">
<g opacity="0.2">
<path d="M11.7797 12C14.6021 12 16.8901 9.76142 16.8901 7.00001C16.8901 4.23858 14.6021 2 11.7797 2C8.9574 2 6.66943 4.23858 6.66943 7.00001C6.66943 9.76142 8.9574 12 11.7797 12Z" stroke="#1A2339" stroke-width="1.5" stroke-linecap="round" stroke-linejoin="round"/>
<path d="M3 22C3 18.13 6.93496 15 11.7796 15" stroke="#1A2339" stroke-width="1.5" stroke-linecap="round" stroke-linejoin="round"/>
<path d="M18.1163 21.4C19.9226 21.4 21.3869 19.9673 21.3869 18.2C21.3869 16.4327 19.9226 15 18.1163 15C16.31 15 14.8457 16.4327 14.8457 18.2C14.8457 19.9673 16.31 21.4 18.1163 21.4Z" stroke="#1A2339" stroke-width="1.5" stroke-linecap="round" stroke-linejoin="round"/>
<path d="M22.0001 22L20.978 21" stroke="#1A2339" stroke-width="1.5" stroke-linecap="round" stroke-linejoin="round"/>
</g>
</svg>
