<svg width="32" height="36" fill="none" xmlns="http://www.w3.org/2000/svg"><path d="M22 5l.749 5.557c.313 2.326 2.042 4.193 4.303 4.648L31 16l-3.948.795c-2.261.455-3.99 2.322-4.303 4.647L22 27l-.749-5.558c-.313-2.325-2.042-4.192-4.303-4.647L13 16l3.948-.795c2.261-.455 3.99-2.322 4.303-4.648L22 5z" fill="url(#prefix__paint0_linear_827_762)"/><path fill-rule="evenodd" clip-rule="evenodd" d="M22 5l-.749 5.557c-.313 2.326-2.042 4.193-4.303 4.648L13 16l3.948.795c2.261.455 3.99 2.322 4.303 4.647L22 27l.749-5.558c.313-2.325 2.042-4.192 4.303-4.647L31 16l-3.948-.795c-2.261-.455-3.99-2.322-4.303-4.648L22 5zm0 1.348l-.57 4.234c-.325 2.404-2.11 4.333-4.447 4.803L13.928 16l3.055.615c2.337.47 4.122 2.4 4.446 4.803L22 25.652l.57-4.234c.325-2.404 2.11-4.333 4.447-4.803L30.072 16l-3.055-.615c-2.337-.47-4.122-2.4-4.446-4.803L22 6.348z" fill="#FA9650"/><path d="M22 4l.832 6.063a6 6 0 004.781 5.07L32 16l-4.387.867a6 6 0 00-4.78 5.07L22 28l-.832-6.063a6 6 0 00-4.781-5.07L12 16l4.387-.867a6 6 0 004.78-5.07L22 4z" fill="url(#prefix__paint1_linear_827_762)"/><path fill-rule="evenodd" clip-rule="evenodd" d="M22 4l-.832 6.063a6 6 0 01-4.781 5.07L12 16l4.387.867a6 6 0 014.78 5.07L22 28l.832-6.063a6 6 0 014.781-5.07L32 16l-4.387-.867a6 6 0 01-4.78-5.07L22 4zm0 1.47l-.634 4.62a6.2 6.2 0 01-4.94 5.24L13.03 16l3.395.67a6.2 6.2 0 014.94 5.24L22 26.53l.634-4.62a6.2 6.2 0 014.94-5.24L30.97 16l-3.395-.67a6.2 6.2 0 01-4.94-5.24L22 5.47z" fill="#FA9650"/><path d="M22 9l.48 2.914a4.375 4.375 0 003.606 3.606L29 16l-2.914.48a4.375 4.375 0 00-3.606 3.606L22 23l-.48-2.914a4.375 4.375 0 00-3.606-3.606L15 16l2.914-.48a4.375 4.375 0 003.606-3.606L22 9z" fill="url(#prefix__paint2_linear_827_762)"/><path fill-rule="evenodd" clip-rule="evenodd" d="M22 9l-.48 2.914a4.375 4.375 0 01-3.606 3.606L15 16l2.914.48a4.375 4.375 0 013.606 3.606L22 23l.48-2.914a4.375 4.375 0 013.606-3.606L29 16l-2.914-.48a4.375 4.375 0 01-3.606-3.606L22 9z" fill="url(#prefix__paint3_linear_827_762)"/><path d="M6 4.625l.45 3.473c.187 1.454 1.224 2.62 2.581 2.905l2.369.497-2.369.497c-1.357.284-2.394 1.451-2.582 2.905L6 18.375l-.45-3.473c-.187-1.454-1.224-2.62-2.581-2.905L.6 11.5l2.369-.497c1.357-.284 2.394-1.451 2.582-2.905L6 4.625z" fill="url(#prefix__paint4_linear_827_762)"/><path fill-rule="evenodd" clip-rule="evenodd" d="M6 4.625l-.45 3.473c-.187 1.454-1.224 2.62-2.581 2.905L.6 11.5l2.369.497c1.357.284 2.394 1.451 2.582 2.905L6 18.375l.45-3.473c.187-1.454 1.224-2.62 2.581-2.905L11.4 11.5l-2.369-.497c-1.357-.284-2.394-1.451-2.582-2.905L6 4.625zm0 .843l-.342 2.646c-.195 1.502-1.266 2.708-2.668 3.002l-1.833.384 1.833.384c1.402.294 2.473 1.5 2.668 3.002L6 17.532l.342-2.646c.195-1.502 1.266-2.708 2.668-3.002l1.833-.384-1.833-.384c-1.402-.294-2.473-1.5-2.668-3.002L6 5.468z" fill="#FA9650"/><path d="M6 4l.5 3.79c.208 1.585 1.36 2.858 2.868 3.168L12 11.5l-2.632.542c-1.508.31-2.66 1.583-2.869 3.169L6 19l-.5-3.79c-.208-1.585-1.36-2.858-2.868-3.168L0 11.5l2.632-.542c1.508-.31 2.66-1.583 2.869-3.169L6 4z" fill="url(#prefix__paint5_linear_827_762)"/><path fill-rule="evenodd" clip-rule="evenodd" d="M6 4l-.5 3.79c-.208 1.585-1.36 2.858-2.868 3.168L0 11.5l2.632.542c1.508.31 2.66 1.583 2.869 3.169L6 19l.5-3.79c.208-1.585 1.36-2.858 2.868-3.168L12 11.5l-2.632-.542c-1.508-.31-2.66-1.583-2.869-3.169L6 4zm0 .92l-.38 2.886c-.216 1.639-1.407 2.954-2.965 3.275L.62 11.5l2.036.42c1.558.32 2.749 1.635 2.965 3.274L6 18.08l.38-2.887c.216-1.639 1.407-2.954 2.965-3.275l2.036-.419-2.036-.42c-1.558-.32-2.749-1.635-2.965-3.274L6 4.92z" fill="#FA9650"/><path d="M6 7.125l.288 1.821c.183 1.157 1.053 2.063 2.164 2.254l1.748.3-1.748.3c-1.11.19-1.981 1.097-2.164 2.254L6 15.875l-.288-1.821c-.183-1.157-1.053-2.063-2.163-2.254L1.8 11.5l1.749-.3c1.11-.19 1.98-1.097 2.163-2.254L6 7.125z" fill="url(#prefix__paint6_linear_827_762)"/><path fill-rule="evenodd" clip-rule="evenodd" d="M6 7.125l-.288 1.821c-.183 1.157-1.053 2.063-2.163 2.254l-1.749.3 1.749.3c1.11.19 1.98 1.097 2.163 2.254L6 15.875l.288-1.821c.183-1.157 1.053-2.063 2.164-2.254l1.748-.3-1.748-.3c-1.11-.19-1.981-1.097-2.164-2.254L6 7.125z" fill="url(#prefix__paint7_linear_827_762)"/><path d="M13 21.417l.3 2.315c.125.97.816 1.747 1.72 1.937L16.6 26l-1.58.331c-.904.19-1.595.968-1.72 1.937l-.3 2.315-.3-2.315c-.125-.97-.816-1.747-1.72-1.937L9.4 26l1.58-.331c.904-.19 1.595-.968 1.72-1.937l.3-2.315z" fill="url(#prefix__paint8_linear_827_762)"/><path fill-rule="evenodd" clip-rule="evenodd" d="M13 21.417l-.3 2.315c-.125.97-.816 1.747-1.72 1.937L9.4 26l1.58.331c.904.19 1.595.968 1.72 1.937l.3 2.315.3-2.315c.125-.97.816-1.747 1.72-1.937L16.6 26l-1.58-.331c-.904-.19-1.595-.968-1.72-1.937l-.3-2.315zm0 .561l-.228 1.765c-.13 1.001-.844 1.805-1.779 2L9.771 26l1.222.256c.935.196 1.65 1 1.779 2.001L13 30.022l.228-1.765c.13-1.001.844-1.805 1.779-2L16.229 26l-1.222-.256c-.935-.196-1.65-1-1.779-2.001L13 21.978z" fill="#FA9650"/><path d="M13 21l.333 2.526c.14 1.057.907 1.906 1.912 2.113L17 26l-1.755.361c-1.005.207-1.773 1.056-1.912 2.113L13 31l-.333-2.526c-.14-1.057-.907-1.906-1.912-2.113L9 26l1.755-.361c1.005-.207 1.773-1.056 1.912-2.113L13 21z" fill="url(#prefix__paint9_linear_827_762)"/><path fill-rule="evenodd" clip-rule="evenodd" d="M13 21l-.333 2.526c-.14 1.057-.907 1.906-1.912 2.113L9 26l1.755.361c1.005.207 1.773 1.056 1.912 2.113L13 31l.333-2.526c.14-1.057.907-1.906 1.912-2.113L17 26l-1.755-.361c-1.005-.207-1.773-1.056-1.912-2.113L13 21zm0 .613l-.254 1.924c-.144 1.093-.937 1.97-1.976 2.183L9.413 26l1.357.28c1.039.213 1.832 1.09 1.976 2.183L13 30.387l.254-1.924c.144-1.093.937-1.97 1.976-2.183l1.357-.28-1.357-.28c-1.039-.213-1.832-1.09-1.976-2.183L13 21.613z" fill="#FA9650"/><path d="M13 23.083l.192 1.215c.122.77.702 1.375 1.442 1.502l1.166.2-1.166.2c-.74.127-1.32.731-1.442 1.502L13 28.917l-.192-1.215c-.122-.77-.702-1.375-1.442-1.502L10.2 26l1.166-.2c.74-.127 1.32-.731 1.442-1.502L13 23.083z" fill="url(#prefix__paint10_linear_827_762)"/><path fill-rule="evenodd" clip-rule="evenodd" d="M13 23.083l-.192 1.215c-.122.77-.702 1.375-1.442 1.502L10.2 26l1.166.2c.74.127 1.32.731 1.442 1.502L13 28.917l.192-1.215c.122-.77.702-1.375 1.442-1.502L15.8 26l-1.166-.2c-.74-.127-1.32-.731-1.442-1.502L13 23.083z" fill="url(#prefix__paint11_linear_827_762)"/><defs><linearGradient id="prefix__paint0_linear_827_762" x1="20" y1="13" x2="25.5" y2="19" gradientUnits="userSpaceOnUse"><stop stop-color="#FFEEB6"/><stop offset="1" stop-color="#FFD500"/></linearGradient><linearGradient id="prefix__paint1_linear_827_762" x1="20" y1="13" x2="25.5" y2="19" gradientUnits="userSpaceOnUse"><stop stop-color="#FFEEB6"/><stop offset="1" stop-color="#FFD500"/></linearGradient><linearGradient id="prefix__paint2_linear_827_762" x1="18.5" y1="12.5" x2="26.375" y2="20.375" gradientUnits="userSpaceOnUse"><stop stop-color="#FFE33E"/><stop offset="1" stop-color="#AF991E"/></linearGradient><linearGradient id="prefix__paint3_linear_827_762" x1="19.375" y1="12.063" x2="25.938" y2="21.688" gradientUnits="userSpaceOnUse"><stop stop-color="#F9D229"/><stop offset="1" stop-color="#FFE853"/></linearGradient><linearGradient id="prefix__paint4_linear_827_762" x1="4.8" y1="9.625" x2="8.247" y2="13.235" gradientUnits="userSpaceOnUse"><stop stop-color="#FFEEB6"/><stop offset="1" stop-color="#FFD500"/></linearGradient><linearGradient id="prefix__paint5_linear_827_762" x1="4.8" y1="9.625" x2="8.247" y2="13.235" gradientUnits="userSpaceOnUse"><stop stop-color="#FFEEB6"/><stop offset="1" stop-color="#FFD500"/></linearGradient><linearGradient id="prefix__paint6_linear_827_762" x1="3.9" y1="9.313" x2="8.818" y2="14.034" gradientUnits="userSpaceOnUse"><stop stop-color="#FFE33E"/><stop offset="1" stop-color="#AF991E"/></linearGradient><linearGradient id="prefix__paint7_linear_827_762" x1="4.425" y1="9.039" x2="8.585" y2="14.897" gradientUnits="userSpaceOnUse"><stop stop-color="#F9D229"/><stop offset="1" stop-color="#FFE853"/></linearGradient><linearGradient id="prefix__paint8_linear_827_762" x1="12.2" y1="24.75" x2="14.498" y2="27.157" gradientUnits="userSpaceOnUse"><stop stop-color="#FFEEB6"/><stop offset="1" stop-color="#FFD500"/></linearGradient><linearGradient id="prefix__paint9_linear_827_762" x1="12.2" y1="24.75" x2="14.498" y2="27.157" gradientUnits="userSpaceOnUse"><stop stop-color="#FFEEB6"/><stop offset="1" stop-color="#FFD500"/></linearGradient><linearGradient id="prefix__paint10_linear_827_762" x1="11.6" y1="24.542" x2="14.879" y2="27.689" gradientUnits="userSpaceOnUse"><stop stop-color="#FFE33E"/><stop offset="1" stop-color="#AF991E"/></linearGradient><linearGradient id="prefix__paint11_linear_827_762" x1="11.95" y1="24.359" x2="14.723" y2="28.264" gradientUnits="userSpaceOnUse"><stop stop-color="#F9D229"/><stop offset="1" stop-color="#FFE853"/></linearGradient></defs></svg>